Coordinates
version=1
nRows=26
nColumns=24
inDegrees=yes

Units are S.I. units (second, meters, Newtons, ...)
Angles are in degrees.

endheader
time	pelvis_tilt	pelvis_list	pelvis_rotation	pelvis_tx	pelvis_ty	pelvis_tz	hip_flexion_r	hip_adduction_r	hip_rotation_r	knee_angle_r	ankle_angle_r	subtalar_angle_r	mtp_angle_r	hip_flexion_l	hip_adduction_l	hip_rotation_l	knee_angle_l	ankle_angle_l	subtalar_angle_l	mtp_angle_l	lumbar_extension	lumbar_bending	lumbar_rotation
      0.81233333	     -2.43532491	      1.62545768	      1.03288443	     -0.03768711	      1.04897384	      0.33342574	    -13.55908631	      1.28633065	     -4.94628233	     -7.88312579	     17.73820714	      2.47677662	      5.15164734	     25.20828191	      2.08357351	     -1.25254978	     -0.69693383	      6.90883850	      6.58826770	      5.85678590	    -15.39803358	      2.33312647	      2.39115554
      0.81650000	     -2.39361397	      1.66421066	      0.95877770	     -0.03164905	      1.04809689	      0.33336337	    -13.79675883	      1.19667210	     -4.99252374	     -8.22869132	     17.83544674	      2.70693317	      5.25699007	     25.27222424	      2.18294000	     -1.25306894	     -1.11503950	      6.87192151	      6.44190965	      5.87280328	    -15.41742155	      2.17011505	      2.41205713
      0.82066667	     -2.37954651	      1.69039700	      0.88144520	     -0.02557488	      1.04720120	      0.33332333	    -14.00392500	      1.12349534	     -4.96406039	     -8.57515943	     17.85412076	      2.77737203	      5.29575489	     25.37515161	      2.26487668	     -1.24538027	     -1.61807748	      6.83795967	      6.28878958	      5.88065064	    -15.39338138	      2.01702959	      2.40868641
      0.82483333	     -2.34577313	      1.74462111	      0.81320254	     -0.01946075	      1.04635724	      0.33324266	    -14.20055853	      1.00560516	     -5.10041412	     -8.99778528	     17.97311438	      3.18434683	      5.45748760	     25.44855500	      2.37978831	     -1.20132416	     -2.16135654	      6.70649586	      6.09172767	      5.92100694	    -15.40069787	      1.82592153	      2.45655768
      0.82900000	     -2.31299067	      1.79245544	      0.73057957	     -0.01331351	      1.04557077	      0.33323238	    -14.40805203	      0.90417233	     -5.08231407	     -9.38971933	     17.94739200	      3.26118137	      5.52002881	     25.52947134	      2.47536082	     -1.18373809	     -2.77780492	      6.59604149	      5.91483636	      5.93775185	    -15.38899901	      1.63530849	      2.44630125
      0.83316667	     -2.30103382	      1.85237078	      0.66494304	     -0.00711727	      1.04476852	      0.33314833	    -14.56150371	      0.77441710	     -5.22333139	     -9.85824681	     18.01236661	      3.66634693	      5.75872695	     25.62472721	      2.59394487	     -1.08718792	     -3.42309092	      6.37431073	      5.64564142	      6.00861474	    -15.35819828	      1.43665073	      2.48817061
      0.83733333	     -2.29181859	      1.92213732	      0.58441313	     -0.00087822	      1.04400452	      0.33313860	    -14.70946004	      0.63706160	     -5.27794375	    -10.33105288	     17.99457837	      3.90366219	      6.00563496	     25.71885744	      2.70928449	     -0.99591014	     -4.10926099	      6.15472957	      5.38031401	      6.08484863	    -15.31539921	      1.19070992	      2.48730564
      0.84150000	     -2.24839669	      1.97131165	      0.50662096	      0.00535909	      1.04335680	      0.33309854	    -14.89366806	      0.52500766	     -5.28069556	    -10.79574897	     17.86496117	      3.97319549	      6.09293976	     25.79567699	      2.80192546	     -0.95417144	     -4.86955620	      5.92137060	      5.18994851	      6.10892241	    -15.30707906	      1.01203130	      2.48298643
      0.84566667	     -2.24125526	      2.04297787	      0.43347210	      0.01164666	      1.04267767	      0.33303345	    -15.01245979	      0.37447017	     -5.36589826	    -11.31722777	     17.76129925	      4.25792974	      9.04101174	     25.86956734	      2.92831808	     -0.70598749	     -5.57373682	      5.52847196	      4.64381909	      7.00982175	    -15.26874271	      0.79163971	      2.44133747
      0.84983333	     -2.22302517	      2.11824826	      0.37098675	      0.01797260	      1.04205613	      0.33295044	    -15.12477228	      0.21765509	     -5.49737374	    -11.88693711	     17.65772603	      4.55924265	      9.12958405	     25.97840242	      3.04752522	     -0.65031687	     -6.40606999	      5.22416651	      4.49773052	      7.02248961	    -15.22812501	      0.54741547	      2.51174313
      0.85400000	     -2.20430286	      2.19571580	      0.30509534	      0.02432940	      1.04148640	      0.33286961	    -15.22896403	      0.05618048	     -5.59727094	    -12.47139268	     17.51228514	      4.83145665	      9.27326337	     26.07066853	      3.16918791	     -0.52248202	     -7.23040666	      4.86555771	      4.18672743	      7.04042580	    -15.17668109	      0.30841820	      2.51028260
      0.85816667	     -2.18632802	      2.26961224	      0.23809466	      0.03068632	      1.04096892	      0.33275855	    -15.30288557	     -0.11047323	     -5.71313725	    -13.11284278	     17.33696533	      5.11582131	      9.51325838	     26.16203404	      3.28799597	     -0.35738447	     -8.06971691	      4.49203403	      3.82885774	      7.06556803	    -15.14128292	      0.07587239	      2.50675901
      0.86233333	     -2.16833463	      2.34952279	      0.17206340	      0.03707646	      1.04050380	      0.33263464	    -15.35984958	     -0.28927821	     -5.83435531	    -13.78710220	     17.11879255	      5.40475954	      9.84142578	     26.25501086	      3.41010297	     -0.20397542	     -8.93054835	      4.10873108	      3.47755136	      7.09016295	    -15.09476616	     -0.16624761	      2.50433569
      0.86650000	     -2.10770121	      2.45227110	      0.09199995	      0.04350595	      1.04018689	      0.33255200	    -15.46131298	     -0.49244216	     -5.89071456	    -14.44978772	     16.75951568	      5.54835672	     12.57307362	     26.27964581	      3.54794885	     -0.04267518	     -9.76312513	      3.68258963	      3.03119377	      7.25421605	    -15.09700581	     -0.44961912	      2.43136033
      0.87066667	     -2.10650567	      2.50687783	      0.05100294	      0.04993153	      1.03977772	      0.33233288	    -15.45867688	     -0.65284873	     -6.04761029	    -15.20297642	     16.44846472	      5.85655408	     12.68018602	     26.42543361	      3.64323862	      0.04172917	    -10.72505887	      3.38278924	      2.87389011	      7.24751568	    -15.02401040	     -0.64907271	      2.47915567
      0.87483333	     -2.07738773	      2.58982811	     -0.00799891	      0.05638325	      1.03949220	      0.33213339	    -15.45938736	     -0.85509378	     -6.19511223	    -16.00549365	     16.11290519	      6.17105081	     12.87660321	     26.50908735	      3.76311907	      0.16313200	    -11.63433117	      3.04045531	      2.57056061	      7.22923687	    -14.98667817	     -0.89206755	      2.47192368
      0.87900000	     -2.03608768	      2.68557515	     -0.07123858	      0.06286617	      1.03930143	      0.33194084	    -15.45837063	     -1.07274578	     -6.30336722	    -16.82365097	     15.63432156	      6.34901115	     15.51562687	     26.55526488	      3.89700172	      0.32968997	    -12.50682150	      2.69842700	      2.15946878	      6.99995318	    -14.95700431	     -1.16166466	      2.41069220
      0.88316667	     -1.99356371	      2.75354380	     -0.12445776	      0.06933244	      1.03913999	      0.33168127	    -15.41760316	     -1.27562771	     -6.47239116	    -17.72426866	     15.20715611	      6.69951323	     15.60490857	     26.63332211	      3.99291549	      0.37296658	    -13.45488537	      2.45741105	      2.03227350	      6.98278587	    -14.94153164	     -1.37140937	      2.43951484
      0.88733333	     -1.95916809	      2.83750782	     -0.18318752	      0.07583001	      1.03903366	      0.33141682	    -15.33881546	     -1.50428469	     -6.63042428	    -18.67751085	     14.74253446	      7.03039910	     15.80317640	     26.69287591	      4.10686008	      0.45560348	    -14.35851024	      2.21291405	      1.78611761	      6.94547313	    -14.90823273	     -1.61376230	      2.42749026
      0.89150000	     -1.90334864	      2.92516154	     -0.23789491	      0.08232667	      1.03901311	      0.33112191	    -15.25190294	     -1.74595147	     -6.80512191	    -19.68642803	     14.22532558	      7.35709783	     16.08376483	     26.71501785	      4.22587768	      0.53000059	    -15.23669122	      2.00207885	      1.57060265	      6.89224459	    -14.89654265	     -1.85149805	      2.41384755
      0.89566667	     -1.76913916	      3.03366643	     -0.28641367	      0.08880499	      1.03920489	      0.33080215	    -15.23383029	     -2.01439671	     -6.98669385	    -20.70281527	     13.57406531	      7.62868035	     18.85957318	     26.61152140	      4.38060675	      0.68320947	    -16.03368102	      1.75795438	      1.20079517	      6.36789175	    -15.00211166	     -2.11958292	      2.37016852
      0.89983333	     -1.77732478	      3.09147430	     -0.34823475	      0.09533217	      1.03917837	      0.33049716	    -15.00877901	     -2.23691665	     -7.10023551	    -21.82334080	     12.95971897	      7.87627112	     18.97940276	     26.69870876	      4.44974270	      0.64469832	    -16.92646455	      1.71335401	      1.21126125	      6.34189850	    -14.89403925	     -2.31746668	      2.36948075
      0.90400000	     -1.70574307	      3.18047215	     -0.40168710	      0.10182372	      1.03934250	      0.33015429	    -14.83930547	     -2.50552084	     -7.26820329	    -22.99387526	     12.32203390	      8.20217587	     19.19872633	     26.65681064	      4.56568786	      0.66950828	    -17.72735363	      1.62827721	      1.09110417	      6.29168820	    -14.90486597	     -2.55479922	      2.35887164
      0.90816667	     -1.65703810	      3.26989421	     -0.45367439	      0.10832064	      1.03952758	      0.32978950	    -14.60980933	     -2.78336960	     -7.42832991	    -24.22128247	     11.63763495	      8.50898014	     19.52187325	     26.61289124	      4.68494771	      0.70061233	    -18.47805624	      1.56562667	      0.95514514	      6.21644433	    -14.88299343	     -2.78829030	      2.34158929
      0.91233333	     -1.54405495	      3.35990982	     -0.49990130	      0.11475980	      1.03989239	      0.32940582	    -14.42773572	     -3.06320351	     -7.57250651	    -25.45651615	     10.79416498	      8.71909203	     22.84736193	     26.46152701	      4.82065010	      0.80238939	    -19.15077676	      1.51955932	      0.71806456	      5.41847180	    -14.96124782	     -3.02340685	      2.33757789
      0.91650000	     -1.50513383	      3.44315648	     -0.55597191	      0.12122280	      1.04015128	      0.32905836	    -14.11753787	     -3.34069829	     -7.67335208	    -26.78610549	     10.02287143	      8.91433653	     22.90254756	     26.39257938	      4.92094309	      0.75380059	    -19.83634843	      1.57495649	      0.74116582	      5.40122104	    -14.91534117	     -3.24457411	      2.28039105
